<mxfile host="app.diagrams.net" agent="Mozilla/5.0 (Macintosh; Intel Mac OS X 10_15_7) AppleWebKit/605.1.15 (KHTML, like Gecko) Version/18.1.1 Safari/605.1.15" version="25.0.1">
  <diagram name="Page-1" id="b5b7bab2-c9e2-2cf4-8b2a-24fd1a2a6d21">
    <mxGraphModel dx="656" dy="445" grid="1" gridSize="10" guides="1" tooltips="1" connect="1" arrows="1" fold="1" page="1" pageScale="1" pageWidth="827" pageHeight="1169" background="none" math="0" shadow="0">
      <root>
        <mxCell id="0" />
        <mxCell id="1" parent="0" />
        <mxCell id="L8X2PBttCMdT1LUrw7yS-1" value="" style="shape=folder;fontStyle=1;spacingTop=10;tabWidth=40;tabHeight=14;tabPosition=left;html=1;whiteSpace=wrap;strokeColor=default;" vertex="1" parent="1">
          <mxGeometry x="360" y="180" width="300" height="160" as="geometry" />
        </mxCell>
        <mxCell id="L8X2PBttCMdT1LUrw7yS-2" value="Frontend" style="text;html=1;align=center;verticalAlign=middle;whiteSpace=wrap;rounded=0;strokeColor=default;" vertex="1" parent="1">
          <mxGeometry x="480" y="200" width="60" height="30" as="geometry" />
        </mxCell>
        <mxCell id="L8X2PBttCMdT1LUrw7yS-3" value="User Interface (View)" style="shape=folder;fontStyle=1;spacingTop=10;tabWidth=40;tabHeight=14;tabPosition=left;html=1;whiteSpace=wrap;strokeColor=default;" vertex="1" parent="1">
          <mxGeometry x="380" y="250" width="100" height="70" as="geometry" />
        </mxCell>
        <mxCell id="L8X2PBttCMdT1LUrw7yS-4" value="Presentation Logic (ViewModel)" style="shape=folder;fontStyle=1;spacingTop=10;tabWidth=40;tabHeight=14;tabPosition=left;html=1;whiteSpace=wrap;strokeColor=default;" vertex="1" parent="1">
          <mxGeometry x="540" y="250" width="100" height="70" as="geometry" />
        </mxCell>
        <mxCell id="L8X2PBttCMdT1LUrw7yS-5" value="" style="shape=folder;fontStyle=1;spacingTop=10;tabWidth=40;tabHeight=14;tabPosition=left;html=1;whiteSpace=wrap;strokeColor=default;" vertex="1" parent="1">
          <mxGeometry x="480" y="400" width="230" height="140" as="geometry" />
        </mxCell>
        <mxCell id="L8X2PBttCMdT1LUrw7yS-6" value="Application Logic" style="text;html=1;align=center;verticalAlign=middle;whiteSpace=wrap;rounded=0;strokeColor=default;" vertex="1" parent="1">
          <mxGeometry x="537.5" y="420" width="115" height="30" as="geometry" />
        </mxCell>
        <mxCell id="L8X2PBttCMdT1LUrw7yS-7" value="Recipe Managing" style="shape=folder;fontStyle=1;spacingTop=10;tabWidth=40;tabHeight=14;tabPosition=left;html=1;whiteSpace=wrap;strokeColor=default;" vertex="1" parent="1">
          <mxGeometry x="510" y="470" width="70" height="50" as="geometry" />
        </mxCell>
        <mxCell id="L8X2PBttCMdT1LUrw7yS-8" value="Online Managing" style="shape=folder;fontStyle=1;spacingTop=10;tabWidth=40;tabHeight=14;tabPosition=left;html=1;whiteSpace=wrap;strokeColor=default;" vertex="1" parent="1">
          <mxGeometry x="620" y="470" width="70" height="50" as="geometry" />
        </mxCell>
        <mxCell id="L8X2PBttCMdT1LUrw7yS-10" value="" style="endArrow=block;dashed=1;endFill=0;endSize=12;html=1;rounded=0;exitX=0.5;exitY=1;exitDx=0;exitDy=0;exitPerimeter=0;entryX=0.481;entryY=0.088;entryDx=0;entryDy=0;entryPerimeter=0;strokeColor=default;" edge="1" parent="1" source="L8X2PBttCMdT1LUrw7yS-4" target="L8X2PBttCMdT1LUrw7yS-5">
          <mxGeometry width="160" relative="1" as="geometry">
            <mxPoint x="690" y="350" as="sourcePoint" />
            <mxPoint x="850" y="350" as="targetPoint" />
          </mxGeometry>
        </mxCell>
        <mxCell id="L8X2PBttCMdT1LUrw7yS-15" value="" style="shape=folder;fontStyle=1;spacingTop=10;tabWidth=40;tabHeight=14;tabPosition=left;html=1;whiteSpace=wrap;strokeColor=default;" vertex="1" parent="1">
          <mxGeometry x="760" y="400" width="230" height="140" as="geometry" />
        </mxCell>
        <mxCell id="L8X2PBttCMdT1LUrw7yS-16" value="API (Server)" style="text;html=1;align=center;verticalAlign=middle;whiteSpace=wrap;rounded=0;strokeColor=default;" vertex="1" parent="1">
          <mxGeometry x="817.5" y="420" width="115" height="30" as="geometry" />
        </mxCell>
        <mxCell id="L8X2PBttCMdT1LUrw7yS-17" value="Recipe Managing" style="shape=folder;fontStyle=1;spacingTop=10;tabWidth=40;tabHeight=14;tabPosition=left;html=1;whiteSpace=wrap;strokeColor=default;" vertex="1" parent="1">
          <mxGeometry x="790" y="470" width="70" height="50" as="geometry" />
        </mxCell>
        <mxCell id="L8X2PBttCMdT1LUrw7yS-18" value="Database" style="shape=folder;fontStyle=1;spacingTop=10;tabWidth=40;tabHeight=14;tabPosition=left;html=1;whiteSpace=wrap;strokeColor=default;" vertex="1" parent="1">
          <mxGeometry x="900" y="470" width="70" height="50" as="geometry" />
        </mxCell>
        <mxCell id="L8X2PBttCMdT1LUrw7yS-19" value="" style="endArrow=block;dashed=1;endFill=0;endSize=12;html=1;rounded=0;exitX=0;exitY=0;exitDx=70;exitDy=32;exitPerimeter=0;strokeColor=default;" edge="1" parent="1" source="L8X2PBttCMdT1LUrw7yS-8">
          <mxGeometry width="160" relative="1" as="geometry">
            <mxPoint x="720" y="470" as="sourcePoint" />
            <mxPoint x="760" y="500" as="targetPoint" />
          </mxGeometry>
        </mxCell>
        <mxCell id="L8X2PBttCMdT1LUrw7yS-21" value="" style="endArrow=block;dashed=1;endFill=0;endSize=12;html=1;rounded=0;exitX=0;exitY=0;exitDx=70;exitDy=32;exitPerimeter=0;entryX=0;entryY=0;entryDx=0;entryDy=32;entryPerimeter=0;strokeColor=default;" edge="1" parent="1" source="L8X2PBttCMdT1LUrw7yS-17" target="L8X2PBttCMdT1LUrw7yS-18">
          <mxGeometry width="160" relative="1" as="geometry">
            <mxPoint x="630" y="430" as="sourcePoint" />
            <mxPoint x="790" y="430" as="targetPoint" />
          </mxGeometry>
        </mxCell>
        <mxCell id="L8X2PBttCMdT1LUrw7yS-22" value="" style="endArrow=block;dashed=1;endFill=0;endSize=12;html=1;rounded=0;exitX=0;exitY=0;exitDx=100;exitDy=42;exitPerimeter=0;entryX=0;entryY=0;entryDx=0;entryDy=42;entryPerimeter=0;strokeColor=default;" edge="1" parent="1" source="L8X2PBttCMdT1LUrw7yS-3" target="L8X2PBttCMdT1LUrw7yS-4">
          <mxGeometry width="160" relative="1" as="geometry">
            <mxPoint x="610" y="360" as="sourcePoint" />
            <mxPoint x="770" y="360" as="targetPoint" />
          </mxGeometry>
        </mxCell>
      </root>
    </mxGraphModel>
  </diagram>
</mxfile>
